<svg width="44px" height="79px" viewBox="0 0 44 79" version="1.1" xmlns="http://www.w3.org/2000/svg">
  <g id="Page-1" stroke="none" stroke-width="1" fill="none" fill-rule="evenodd" transform="matrix(1, 0, 0, -1, 0.800992, 78.98999)">
    <g id="TD-HanddrawnArrows" transform="translate(-275.000000, -201.000000)" fill="#1A1918">
      <path d="M317.015,209.069 C317.856,209.524 318.338,210.495 318.87,210.924 C316.242,218.053 310.17,223.524 305.471,229.27 C305.807,229.648 306.012,230.206 305.884,230.713 C304.681,232.001 302.199,231.211 300.937,230.301 C301.349,229.537 300.609,228.883 301.142,228.239 C305.377,224.254 312.248,217.744 314.335,210.924 C313.88,209.936 312.498,209.876 311.655,209.275 C312.291,210.151 313.657,210.288 314.129,211.336 C313.278,214.257 310.006,212.968 306.295,214.016 C296.436,216.799 288.671,223.979 282.797,231.538 C279.859,235.823 279.078,240.771 279.086,248.234 C279.095,252.932 282.461,261.693 286.095,264.932 C285.872,265.704 286.61,265.515 286.507,266.168 C288.629,268.994 291.153,271.416 293.309,274.207 C294.727,274.989 295.886,276.028 297.02,277.093 C296.47,278.003 297.613,278.39 296.813,278.743 C296.547,279.343 295.182,278.88 294.134,279.154 C285.253,269.14 274.199,259.975 275.788,242.05 C277.016,228.179 289.041,219.496 298.875,213.604 C301.847,212.504 305.935,211.474 308.151,210.305 C303.788,208.279 297.638,205.71 290.835,204.947 C290.406,204.07 289.264,203.915 289.599,202.267 C289.899,202.155 290.106,201.949 290.217,201.647 C296.229,202.361 302.345,203.014 308.151,204.74 C308.237,205.169 308.013,205.281 307.945,205.565 C308.366,205.745 308.357,204.517 308.563,205.152 C311.071,206.432 314.043,206.792 315.778,208.245 C315.924,208.365 316.053,208.983 315.993,209.069 L315.984,209.069 C315.993,209.078 316.002,209.078 315.993,209.069 C316.13,209.138 316.774,208.94 317.015,209.069" id="Fill-59" style="fill: rgb(211, 69, 68);"></path>
    </g>
  </g>
</svg>